# xmcd
#
# Track frame offsets: 
#        150
#        17195
#        36019
#        59582
#        79908
#        101037
#        117991
#        141140
#        163622
#        183676
#        207565
#
# Disc length: 3135 seconds
#
# Revision: 0
# Processed by: cddbd v1.5.2PL0 Copyright (c) Steve Scherf et al.
# Submitted via: ExactAudioCopy v0.99pb5
#
DISCID=a10c3d0b
DTITLE=Tamara Peterson - Whatever you say
DYEAR=2013
DGENRE=Jazz
TTITLE0=How do I, Why do I (love)
TTITLE1=Carried away
TTITLE2=Patience
TTITLE3=I wanna know what good love is
TTITLE4=Have you ever (could of been you)
TTITLE5=One of a kind
TTITLE6=Last time (you left)
TTITLE7=Try to make a liar out of me
TTITLE8=Whatever you say
TTITLE9=Dance and party
TTITLE10=Real music
EXTD=
EXTT0=
EXTT1=
EXTT2=
EXTT3=
EXTT4=
EXTT5=
EXTT6=
EXTT7=
EXTT8=
EXTT9=
EXTT10=
PLAYORDER=
